<svg width="30" height="25" fill="none" xmlns="http://www.w3.org/2000/svg">
    <path d="M1.263 0A1.27 1.27 0 00.37.366a1.243 1.243 0 000 1.768c.237.234.558.366.893.366h2.804l3.315 13.125C7.664 16.738 8.67 17.5 9.829 17.5h14.488c1.14 0 2.11-.75 2.409-1.838L30 3.75h-5.407L23.33 5l1.263 1.25h2.13L24.316 15H9.827L6.514 1.875A2.48 2.48 0 005.618.519 2.524 2.524 0 004.068 0H1.262zm21.474 17.5c-2.078 0-3.79 1.694-3.79 3.75S20.66 25 22.737 25c2.078 0 3.79-1.694 3.79-3.75s-1.712-3.75-3.79-3.75zm-11.368 0c-2.079 0-3.79 1.694-3.79 3.75S9.29 25 11.369 25c2.077 0 3.789-1.694 3.789-3.75s-1.712-3.75-3.79-3.75zm0 2.5c.712 0 1.263.545 1.263 1.25s-.551 1.25-1.264 1.25a1.238 1.238 0 01-1.263-1.25c0-.705.551-1.25 1.263-1.25zm11.368 0c.712 0 1.263.545 1.263 1.25s-.55 1.25-1.263 1.25a1.238 1.238 0 01-1.263-1.25c0-.705.55-1.25 1.263-1.25z"
          fill="currentColor"/>
</svg>