<svg width="50" height="55" fill="none" xmlns="http://www.w3.org/2000/svg">
    <path d="M24.02 13.82l.29 2.909-2.64.482a2.736 2.736 0 00-1.35.68 3.107 3.107 0 00-.848 1.334 3.379 3.379 0 00-.113 1.621c.094.543.32 1.049.651 1.467l1.873 2.358-2.151 2.032c-.285.27-.46.652-.486 1.064-.026.411.098.818.347 1.13.248.314.6.507.977.537.377.03.75-.103 1.035-.373l11.832-11.174a6.228 6.228 0 001.63-2.603 6.755 6.755 0 00.244-3.147 6.54 6.54 0 00-1.204-2.881 5.805 5.805 0 00-2.341-1.873 5.274 5.274 0 00-2.877-.38 5.43 5.43 0 00-2.67 1.208 6.134 6.134 0 00-1.775 2.486 6.727 6.727 0 00-.424 3.124zm.052-7.725c1.712-1.616 3.945-2.421 6.21-2.238 2.264.184 4.373 1.342 5.863 3.218 1.49 1.877 2.24 4.318 2.083 6.788-.157 2.47-1.206 4.766-2.918 6.382L23.478 31.42c-.856.808-1.973 1.21-3.105 1.118-1.132-.091-2.187-.67-2.932-1.608a4.97 4.97 0 01-1.041-3.395c.078-1.235.603-2.382 1.459-3.19a6.512 6.512 0 01-1.303-2.935 6.757 6.757 0 01.229-3.243 6.217 6.217 0 011.697-2.666 5.47 5.47 0 012.702-1.36c-.152-1.5.032-3.015.535-4.416a9.295 9.295 0 012.353-3.63z"
          fill="url(#paint0_linear)"/>
    <path d="M1.982 14.744a1.99 1.99 0 00-1.402.575 1.958 1.958 0 000 2.78 1.99 1.99 0 001.402.576h4.4l5.2 20.641c.442 1.75 2.022 2.95 3.84 2.95h22.731c1.79 0 3.31-1.18 3.78-2.89L47.07 20.64h-8.484l-1.981 1.966 1.981 1.966h3.343l-3.778 13.76H15.42l-5.198-20.64a3.898 3.898 0 00-1.406-2.133 3.953 3.953 0 00-2.433-.816h-4.4zm33.692 27.521c-3.26 0-5.946 2.664-5.946 5.898 0 3.234 2.686 5.897 5.946 5.897s5.946-2.663 5.946-5.897c0-3.234-2.686-5.898-5.946-5.898zm-17.837 0c-3.26 0-5.946 2.664-5.946 5.898 0 3.234 2.686 5.897 5.946 5.897s5.946-2.663 5.946-5.897c0-3.234-2.686-5.898-5.946-5.898zm0 3.932c1.118 0 1.982.857 1.982 1.966 0 1.108-.864 1.966-1.982 1.966-1.118 0-1.982-.858-1.982-1.966 0-1.109.864-1.966 1.982-1.966zm17.837 0c1.118 0 1.982.857 1.982 1.966 0 1.108-.864 1.966-1.982 1.966-1.118 0-1.982-.858-1.982-1.966 0-1.109.864-1.966 1.982-1.966z"
          fill="url(#paint1_linear)"/>
    <path d="M38.586 20.641l-1.981 1.966 1.981 1.966a1.99 1.99 0 01-1.401-.576 1.958 1.958 0 010-2.78 1.99 1.99 0 011.401-.576z"
          fill="url(#paint2_linear)"/>
    <defs>
        <linearGradient id="paint0_linear" x1="19.77" y1="10.158" x2="32.131" y2="23.247"
                        gradientUnits="userSpaceOnUse">
            <stop offset=".251" stop-color="#10A3CC"/>
            <stop offset="1" stop-color="#B32EE8"/>
        </linearGradient>
        <linearGradient id="paint1_linear" x1="23.535" y1="14.744" x2="23.535" y2="54.06"
                        gradientUnits="userSpaceOnUse">
            <stop offset=".251" stop-color="#10A3CC"/>
            <stop offset="1" stop-color="#B32EE8"/>
        </linearGradient>
        <linearGradient id="paint2_linear" x1="23.535" y1="14.744" x2="23.535" y2="54.06"
                        gradientUnits="userSpaceOnUse">
            <stop offset=".251" stop-color="#10A3CC"/>
            <stop offset="1" stop-color="#B32EE8"/>
        </linearGradient>
    </defs>
</svg>